<svg t="1619080395546" class="icon" viewBox="0 0 1024 1024" version="1.1" xmlns="http://www.w3.org/2000/svg" p-id="12861" width="200" height="200"><path d="M896 810.666667a85.333333 85.333333 0 0 1-85.333333 85.333333H213.333333a85.333333 85.333333 0 0 1-85.333333-85.333333V213.333333a85.333333 85.333333 0 0 1 85.333333-85.333333h597.333334a85.333333 85.333333 0 0 1 85.12 78.933333L896 213.333333v597.333334zM384 682.666667H213.333333v128h170.666667v-128z m213.333333 0h-170.666666v128h170.666666v-128z m213.333334 0h-170.666667v128h170.666667v-128zM384 512H213.333333v128h170.666667v-128z m213.333333 0h-170.666666v128h170.666666v-128z m213.333334 0h-170.666667v128h170.666667v-128zM384 341.333333H213.333333v128h170.666667V341.333333z m213.333333 0h-170.666666v128h170.666666V341.333333z m213.333334 0h-170.666667v128h170.666667V341.333333z" p-id="12862"></path></svg>